<svg xmlns="http://www.w3.org/2000/svg" viewBox="0 0 24 24" fill="currentColor">
  <path d="M12 .5C5.65.5.5 5.65.5 12c0 5.09 3.29 9.41 7.86 10.94.57.1.78-.25.78-.55v-2.02c-3.2.7-3.88-1.54-3.88-1.54-.52-1.33-1.28-1.68-1.28-1.68-1.05-.72.08-.71.08-.71 1.16.08 1.78 1.2 1.78 1.2 1.03 1.76 2.7 1.25 3.36.96.1-.75.4-1.25.72-1.54-2.55-.29-5.23-1.28-5.23-5.7 0-1.26.45-2.29 1.2-3.1-.12-.3-.52-1.52.12-3.18 0 0 .98-.31 3.2 1.18a11.1 11.1 0 0 1 5.82 0c2.22-1.49 3.2-1.18 3.2-1.18.64 1.66.24 2.88.12 3.18.75.81 1.2 1.84 1.2 3.1 0 4.43-2.69 5.4-5.25 5.68.41.36.77 1.09.77 2.2v3.26c0 .3.2.66.79.55A10.99 10.99 0 0 0 23.5 12c0-6.35-5.15-11.5-11.5-11.5z"/>
</svg>
