<svg 
  xmlns="http://www.w3.org/2000/svg" 
  viewBox="0 0 24 24" 
  width="24" 
  height="24"
  fill="#25D366"
>
  <path d="M12.04 2C6.58 2 2.13 6.45 2.13 11.91c0 1.96.51 3.87 1.49 5.56L2 22l4.65-1.61a9.86 9.86 0 0 0 5.39 1.57h.01c5.46 0 9.91-4.45 9.91-9.91C21.96 6.45 17.5 2 12.04 2zm0 18.02h-.01a8.17 8.17 0 0 1-4.17-1.14l-.3-.18-2.76.96.9-2.69-.2-.31a8.17 8.17 0 0 1-1.26-4.37c0-4.52 3.67-8.19 8.19-8.19 4.52 0 8.19 3.67 8.19 8.19 0 4.52-3.67 8.19-8.19 8.19zm4.49-6.12c-.25-.12-1.47-.72-1.7-.8-.23-.08-.39-.12-.56.12-.16.23-.64.8-.78.96-.14.16-.29.18-.54.06-.25-.12-1.05-.39-2-1.24-.74-.66-1.24-1.47-1.38-1.72-.14-.25-.02-.38.1-.5.11-.11.25-.29.37-.43.12-.14.16-.23.25-.39.08-.16.04-.31-.02-.43-.06-.12-.56-1.35-.77-1.85-.2-.48-.4-.41-.56-.42l-.48-.01c-.16 0-.43.06-.66.31-.23.25-.87.85-.87 2.07 0 1.22.89 2.4 1.01 2.57.12.16 1.75 2.67 4.25 3.74.59.25 1.05.4 1.41.51.59.19 1.13.16 1.55.1.47-.07 1.47-.6 1.68-1.17.21-.57.21-1.06.14-1.17-.06-.1-.23-.16-.48-.29z"/>
</svg>
